#!OML:ASF E:\CV Data\Top Level 1\Subject 1\Session 1\player.ASF
:FULLY-SPECIFIED
:DEGREES
871
root 1.61935 17.8166 -21.5539 13.6532 2.78336 -1.72625
lowerback 12.3282 0.0138445 8.87605
upperback 3.24563 1.41336 6.86223
thorax -3.45475 0.652867 2.01958
lowerneck -9.56656 -12.422 -15.5439
upperneck 31.3258 -16.3798 5.82469
head 14.1556 -8.2043 2.26633
rclavicle 7.95139e-015 3.33958e-014
rhumerus -25.3922 -35.7668 -54.379
rradius 62.6324
rwrist -29.1363
rhand -11.8189 -4.67284
rfingers 7.12502
rthumb 14.2315 -34.1653
lclavicle 7.95139e-015 3.33958e-014
lhumerus -36.7358 25.4304 65.8139
lradius 18.9916
lwrist -18.0309
lhand -15.2805 13.3263
lfingers 7.12502
lthumb 10.8942 43.0237
rfemur -20.8297 -0.0236335 23.3861
rtibia 31.3843
rfoot -20.6747 -12.799
rtoes 1.5284
lfemur -33.2686 5.81499 -15.2937
ltibia 33.5034
lfoot -6.10789 5.45159
ltoes -1.19644
872
root 1.62272 17.8204 -21.5696 13.6217 2.91696 -1.69323
lowerback 12.2162 -0.0448292 8.87903
upperback 3.23989 1.32037 6.82512
thorax -3.40083 0.608822 1.99247
lowerneck -9.59631 -12.3647 -15.5182
upperneck 31.3265 -16.2947 5.81736
head 14.1468 -8.16607 2.27498
rclavicle 9.54166e-015 4.77083e-015
rhumerus -26.2548 -35.9696 -53.5609
rradius 64.5683
rwrist -30.5594
rhand -10.1709 -5.11223
rfingers 7.12502
rthumb 15.8191 -34.4859
lclavicle 9.54166e-015 4.77083e-015
lhumerus -37.9521 27.3392 63.6825
lradius 18.2181
lwrist -21.0666
lhand -15.1234 12.9021
lfingers 7.12502
lthumb 11.0458 42.5914
rfemur -20.8276 -0.025451 23.3466
rtibia 31.352
rfoot -20.6031 -12.9013
rtoes 1.54802
lfemur -32.9606 5.92131 -15.1492
ltibia 33.7211
lfoot -6.22911 5.03691
ltoes -1.24608
873
root 1.62662 17.8243 -21.5836 13.5894 3.05577 -1.66111
lowerback 12.0909 -0.096252 8.87084
upperback 3.22575 1.23456 6.78585
thorax -3.34859 0.568206 1.96796
lowerneck -9.60966 -12.3171 -15.5076
upperneck 31.3215 -16.2266 5.82222
head 14.1373 -8.13585 2.28822
rclavicle 1.51076e-014 4.45278e-014
rhumerus -27.1313 -36.2109 -52.7133
rradius 66.4507
rwrist -32.0783
rhand -8.71991 -5.63729
rfingers 7.12502
rthumb 17.216 -34.8947
lclavicle 1.51076e-014 4.45278e-014
lhumerus -39.1844 28.9448 61.6814
lradius 17.6413
lwrist -23.6027
lhand -15.0385 12.5893
lfingers 7.12502
lthumb 11.1276 42.2743
rfemur -20.8205 -0.0250094 23.3085
rtibia 31.3234
rfoot -20.5304 -13.0232
rtoes 1.54462
lfemur -32.6389 6.05107 -15.026
ltibia 33.8971
lfoot -6.37111 4.67185
ltoes -1.35565
874
root 1.63083 17.8281 -21.596 13.552 3.1969 -1.6269
lowerback 11.9751 -0.138914 8.84551
upperback 3.19756 1.16103 6.74324
thorax -3.31654 0.532937 1.94741
lowerneck -9.60655 -12.281 -15.5081
upperneck 31.31 -16.1788 5.83744
head 14.1266 -8.1148 2.30413
rclavicle -4.77083e-015 3.49861e-014
rhumerus -28.0384 -36.4811 -51.8214
rradius 68.2258
rwrist -33.4707
rhand -7.59334 -6.14944
rfingers 7.12502
rthumb 18.3001 -35.3086
lclavicle -4.77083e-015 3.49861e-014
lhumerus -40.3699 30.1642 59.9152
lradius 17.2606
lwrist -25.4655
lhand -15.0046 12.4161
lfingers 7.12502
lthumb 11.1603 42.0993
rfemur -20.8021 -0.0105859 23.2678
rtibia 31.2959
rfoot -20.4609 -13.1718
rtoes 1.53391
lfemur -32.2981 6.20638 -14.9266
ltibia 34.0313
lfoot -6.52371 4.37699
ltoes -1.50673
875
root 1.63524 17.8319 -21.6066 13.5084 3.33891 -1.58718
lowerback 11.8334 -0.171344 8.79854
upperback 3.17657 1.09388 6.69624
thorax -3.26281 0.501624 1.93296
lowerneck -9.5986 -12.2601 -15.5153
upperneck 31.281 -16.1561 5.86809
head 14.1128 -8.10358 2.32241
rclavicle 0 2.8625e-014
rhumerus -28.9456 -36.7894 -50.9063
rradius 69.8489
rwrist -34.5354
rhand -6.86251 -6.62858
rfingers 7.12502
rthumb 19.0031 -35.7203
lclavicle 0 2.8625e-014
lhumerus -41.4254 30.9969 58.4627
lradius 17.0603
lwrist -26.5591
lhand -15.0027 12.3454
lfingers 7.12502
lthumb 11.1621 42.0285
rfemur -20.7662 0.0296164 23.2195
rtibia 31.2642
rfoot -20.3939 -13.3545
rtoes 1.51206
lfemur -31.9347 6.39075 -14.856
ltibia 34.121
lfoot -6.6884 4.17641
ltoes -1.67235
876
root 1.63981 17.8354 -21.6152 13.4585 3.48203 -1.54225
lowerback 11.683 -0.197678 8.72034
upperback 3.15202 1.03057 6.65154
thorax -3.2086 0.47229 1.93745
lowerneck -9.57095 -12.249 -15.5381
upperneck 31.2269 -16.1503 5.91304
head 14.0894 -8.10032 2.34656
rclavicle 4.77083e-015 -1.43125e-014
rhumerus -29.8541 -37.1213 -49.9595
rradius 71.2639
rwrist -35.2137
rhand -6.42087 -6.99411
rfingers 7.12502
rthumb 19.4277 -36.0436
lclavicle 4.77083e-015 -1.43125e-014
lhumerus -42.3383 31.4459 57.3662
lradius 17.0317
lwrist -26.8411
lhand -15.0256 12.3601
lfingers 7.12502
lthumb 11.14 42.0444
rfemur -20.709 0.102917 23.1628
rtibia 31.2241
rfoot -20.3342 -13.5739
rtoes 1.49378
lfemur -31.5463 6.59801 -14.8104
ltibia 34.169
lfoot -6.86616 4.0925
ltoes -1.85582
877
root 1.64448 17.8389 -21.6221 13.4013 3.62771 -1.49418
lowerback 11.5074 -0.218341 8.61987
upperback 3.13832 0.967731 6.60455
thorax -3.12935 0.444092 1.95142
lowerneck -9.54149 -12.2499 -15.5647
upperneck 31.142 -16.1644 5.97487
head 14.0568 -8.10423 2.37414
rclavicle -2.38542e-015 6.36111e-015
rhumerus -30.7442 -37.5181 -48.9945
rradius 72.4613
rwrist -35.5395
rhand -5.99097 -7.28884
rfingers 7.12502
rthumb 19.841 -36.2961
lclavicle -2.38542e-015 6.36111e-015
lhumerus -43.0658 31.5507 56.6428
lradius 17.1599
lwrist -26.3519
lhand -15.064 12.4406
lfingers 7.12502
lthumb 11.103 42.1269
rfemur -20.6278 0.20872 23.0997
rtibia 31.1721
rfoot -20.2807 -13.8239
rtoes 1.49053
lfemur -31.1352 6.83481 -14.7891
ltibia 34.176
lfoot -7.04917 4.11838
ltoes -2.0413
878
root 1.64911 17.842 -21.6278 13.3375 3.77466 -1.44957
lowerback 11.323 -0.232979 8.50101
upperback 3.12741 0.909714 6.5583
thorax -3.04232 0.41851 1.97544
lowerneck -9.52477 -12.265 -15.5919
upperneck 31.0442 -16.1977 6.04054
head 14.0244 -8.11558 2.39862
rclavicle -3.73715e-014 -7.79236e-014
rhumerus -31.629 -37.9809 -47.9984
rradius 73.4715
rwrist -35.775
rhand -5.35202 -7.54132
rfingers 7.12502
rthumb 20.4552 -36.4838
lclavicle -3.73715e-014 -7.79236e-014
lhumerus -43.6276 31.3673 56.2585
lradius 17.4264
lwrist -25.2075
lhand -15.12 12.5746
lfingers 7.12502
lthumb 11.049 42.2638
rfemur -20.5256 0.348225 23.0376
rtibia 31.1073
rfoot -20.2311 -14.1018
rtoes 1.49203
lfemur -30.7045 7.09278 -14.7803
ltibia 34.1485
lfoot -7.23385 4.26376
ltoes -2.23149
879
root 1.654 17.8448 -21.6325 13.2647 3.92467 -1.41085
lowerback 11.1379 -0.248877 8.36523
upperback 3.1106 0.849454 6.51715
thorax -2.96144 0.391534 2.01439
lowerneck -9.48298 -12.2815 -15.6391
upperneck 30.9145 -16.2345 6.12006
head 13.977 -8.13009 2.43241
rclavicle -3.18055e-015 6.20208e-014
rhumerus -32.4983 -38.4688 -46.9895
rradius 74.3789
rwrist -36.336
rhand -4.45719 -7.9121
rfingers 7.12502
rthumb 21.3149 -36.7599
lclavicle -3.18055e-015 6.20208e-014
lhumerus -44.0796 30.9659 56.1441
lradius 17.8155
lwrist -23.5435
lhand -15.1913 12.7233
lfingers 7.12502
lthumb 10.9802 42.4162
rfemur -20.3986 0.517071 22.9785
rtibia 31.0301
rfoot -20.1888 -14.4006
rtoes 1.50261
lfemur -30.2537 7.36757 -14.7799
ltibia 34.0901
lfoot -7.40287 4.51742
ltoes -2.38413
880
root 1.6591 17.8471 -21.6373 13.1816 4.08362 -1.38742
lowerback 10.9724 -0.264798 8.23819
upperback 3.08799 0.793881 6.47525
thorax -2.89697 0.366235 2.04707
lowerneck -9.43567 -12.3047 -15.6865
upperneck 30.7524 -16.2812 6.20578
head 13.9164 -8.14859 2.46707
rclavicle -1.11319e-014 -1.27222e-014
rhumerus -33.3624 -38.9764 -45.9736
rradius 75.2519
rwrist -37.5255
rhand -3.28154 -8.37066
rfingers 7.12502
rthumb 22.4437 -37.0866
lclavicle -1.11319e-014 -1.27222e-014
lhumerus -44.427 30.4005 56.2479
lradius 18.3073
lwrist -21.5423
lhand -15.2742 12.8978
lfingers 7.12502
lthumb 10.9003 42.5949
rfemur -20.253 0.706484 22.9345
rtibia 30.9413
rfoot -20.1483 -14.7149
rtoes 1.52636
lfemur -29.7911 7.64933 -14.7736
ltibia 34.0087
lfoot -7.53695 4.85715
ltoes -2.51912
881
root 1.66495 17.849 -21.6417 13.0885 4.2514 -1.37998
lowerback 10.8095 -0.287904 8.11607
upperback 3.06059 0.730949 6.43983
thorax -2.839 0.336981 2.08476
lowerneck -9.36802 -12.3274 -15.7548
upperneck 30.5534 -16.3265 6.30314
head 13.8391 -8.16834 2.51088
rclavicle -6.36111e-015 1.59028e-015
rhumerus -34.1728 -39.4493 -44.9986
rradius 76.1567
rwrist -39.573
rhand -2.08229 -9.06548
rfingers 7.12502
rthumb 23.5945 -37.6379
lclavicle -6.36111e-015 1.59028e-015
lhumerus -44.7179 29.731 56.5142
lradius 18.8907
lwrist -19.3112
lhand -15.3637 13.065
lfingers 7.12502
lthumb 10.8139 42.7666
rfemur -20.0865 0.89442 22.9062
rtibia 30.8421
rfoot -20.1134 -15.0225
rtoes 1.5541
lfemur -29.3138 7.92404 -14.7579
ltibia 33.9092
lfoot -7.63185 5.27887
ltoes -2.64093
882
root 1.67172 17.8505 -21.6458 12.9879 4.42878 -1.39538
lowerback 10.6616 -0.318898 8.01195
upperback 3.02234 0.663178 6.40953
thorax -2.80033 0.304598 2.11854
lowerneck -9.28084 -12.3506 -15.8365
upperneck 30.3149 -16.3719 6.40792
head 13.7432 -8.18976 2.56071
rclavicle 1.35174e-014 1.74931e-014
rhumerus -34.9221 -39.8641 -44.0772
rradius 77.0998
rwrist -42.3931
rhand -0.988315 -10.036
rfingers 7.12502
rthumb 24.6434 -38.4694
lclavicle 1.35174e-014 1.74931e-014
lhumerus -44.973 28.988 56.9012
lradius 19.5528
lwrist -16.971
lhand -15.4551 13.2337
lfingers 7.12502
lthumb 10.7258 42.9399
rfemur -19.9051 1.0662 22.901
rtibia 30.7332
rfoot -20.0852 -15.3077
rtoes 1.60008
lfemur -28.8282 8.18831 -14.7239
ltibia 33.7985
lfoot -7.68169 5.75691
ltoes -2.7589
883
root 1.67958 17.8516 -21.6498 12.8831 4.61074 -1.43536
lowerback 10.5091 -0.355701 7.92932
upperback 2.98273 0.590023 6.3843
thorax -2.76021 0.269457 2.14629
lowerneck -9.17454 -12.377 -15.9354
upperneck 30.0255 -16.4213 6.52644
head 13.626 -8.21406 2.61878
rclavicle -1.19271e-014 -8.74653e-014
rhumerus -35.5779 -40.1958 -43.2432
rradius 78.0555
rwrist -45.6656
rhand -0.00251706 -11.2261
rfingers 7.12502
rthumb 25.588 -39.5272
lclavicle -1.19271e-014 -8.74653e-014
lhumerus -45.1982 28.2233 57.3711
lradius 20.2795
lwrist -14.633
lhand -15.534 13.4313
lfingers 7.12502
lthumb 10.6496 43.1414
rfemur -19.7154 1.20855 22.9202
rtibia 30.6139
rfoot -20.0583 -15.5539
rtoes 1.65604
lfemur -28.339 8.43365 -14.6682
ltibia 33.6801
lfoot -7.70221 6.27656
ltoes -2.7968
